<svg width="88" height="93" viewBox="0 0 88 93" fill="none" xmlns="http://www.w3.org/2000/svg">
<path fill-rule="evenodd" clip-rule="evenodd" d="M16.3499 64.1017C15.3213 66.1136 13.6052 67.2016 11.1372 67.2016C7.36435 67.2016 5.42682 64.9537 5.42682 61.9267C5.42682 58.1764 7.43238 56.1268 10.9993 56.1268C13.3829 56.1268 15.3218 57.0344 16.196 59.1905L17.4999 58.5566C16.3846 55.8745 13.6572 54.788 10.9824 54.788C6.78044 54.788 3.88281 57.1965 3.88281 61.7279C3.88281 65.552 6.16321 68.6138 10.9993 68.6138C14.0348 68.6138 16.3503 67.5272 17.6875 64.7897L16.3499 64.1017ZM19.4142 68.2891H20.8029V62.6156C20.8554 62.3435 22.278 59.9336 24.2502 59.9336C24.8501 59.9336 25.1939 60.0426 25.3646 60.06V58.5923C25.1081 58.5392 24.8501 58.5194 24.542 58.5194C22.7414 58.5194 21.6096 59.8255 20.8029 60.7861V58.8108H19.4142V68.2891ZM30.7467 68.579C33.7996 68.579 35.9079 66.7307 35.9079 63.3775C35.9079 60.6766 33.9014 58.5199 30.7467 58.5199C27.5912 58.5199 25.5673 60.6771 25.5673 63.3775C25.5673 66.7307 27.6943 68.579 30.7467 68.579ZM30.7467 67.3275C28.3974 67.3275 26.957 65.8236 26.957 63.5584C26.957 61.8364 28.0363 59.7695 30.7467 59.7695C33.4549 59.7695 34.5191 61.836 34.5191 63.5584C34.5191 65.8236 33.0952 67.3275 30.7467 67.3275ZM38.7516 61.7819C39.6095 60.8039 41.153 59.77 42.6445 59.77C45.0801 59.77 46.5201 61.4736 46.5201 63.4315C46.5201 66.3128 44.5318 67.3275 42.6783 67.3275C40.7412 67.3275 39.5752 66.3669 38.7512 65.4618V61.7819H38.7516ZM37.3633 71.622H38.7516V66.982C39.9879 67.9427 40.912 68.579 42.7646 68.579C46.6059 68.579 47.9093 65.6605 47.9093 63.4667C47.9093 61.3101 46.4694 58.5194 43.0043 58.5194C40.9467 58.5194 40.0377 59.1355 38.7516 60.2419V58.8108H37.3633V71.622Z" fill="white"/>
<path fill-rule="evenodd" clip-rule="evenodd" d="M50.0513 68.2891H61.4049V66.8735H51.5606V55.1127H50.0513V68.2891ZM63.1328 68.2891H64.5221V58.8108H63.1328V68.2891ZM63.0123 55.1127V56.797H64.6075V55.1127H63.0123ZM68.3401 68.2891H69.7293V60.2602H73.4172V59.0091H69.7293V58.3925C69.7293 56.9972 70.0201 56.0361 71.9417 56.0361C72.6452 56.0361 73.2447 56.1814 73.8633 56.3449V55.0398C73.5021 54.9491 72.9538 54.788 71.5317 54.788C68.8039 54.788 68.3405 56.7261 68.3405 58.2845V59.0096H66.0775V60.2607H68.3405V68.2891H68.3401ZM82.7808 65.4801C82.2147 66.2221 81.4431 67.3275 79.1285 67.3275C76.7951 67.3275 75.4415 65.6239 75.3041 63.8484H84.1175C84.1869 60.0976 81.6842 58.5194 78.8194 58.5194C76.0587 58.5194 73.9153 60.4956 73.9153 63.5034C73.9153 66.404 75.9743 68.579 78.9915 68.579C82.0439 68.579 82.9364 67.3463 83.8618 66.3128L82.7808 65.4801ZM75.3552 62.5968C75.7501 60.8575 76.8997 59.77 78.939 59.77C81.0656 59.77 82.3352 61.0394 82.61 62.5968H75.3552Z" fill="#807F7F"/>
<path fill-rule="evenodd" clip-rule="evenodd" d="M48.579 29.3692C50.2892 23.5839 53.8525 20.1675 58.8483 17.8188C59.8687 17.3376 60.9325 16.9666 62.0235 16.7115C58.1494 14.8646 54.2428 14.5457 50.8475 16.1441C48.8201 17.098 47.1514 18.6506 45.8604 20.6567C47.0802 23.2645 47.9988 26.223 48.579 29.3692Z" fill="white"/>
<path fill-rule="evenodd" clip-rule="evenodd" d="M46.5571 45.6122C54.6437 45.6836 61.49 48.2311 64.2095 51.209C60.1505 48.8984 53.1518 47.3646 46.2102 47.3646C46.3161 46.79 46.443 46.2071 46.5571 45.6122ZM44.9191 47.382C38.4116 47.5566 32.0178 49.0407 28.2085 51.209C30.8418 48.3291 37.3369 45.8496 45.0798 45.6272C45.0396 46.2134 44.986 46.7985 44.9191 47.382Z" fill="#807F7F"/>
<path fill-rule="evenodd" clip-rule="evenodd" d="M46.2139 47.3646C45.4067 50.576 44.2713 53.4853 42.8716 55.9478C43.8664 53.3169 44.5712 50.4331 44.9191 47.382C45.3391 47.3718 45.7938 47.3651 46.2139 47.3646ZM46.5572 45.6122L46.2102 45.6118C45.8304 45.6118 45.4542 45.6166 45.0794 45.6272C45.1095 45.1809 45.131 44.7317 45.1469 44.2777C45.6418 29.2631 37.4036 16.7742 26.7426 16.3805C25.7552 16.3429 24.7667 16.4118 23.7925 16.5861C26.3902 13.7139 29.4928 12.086 32.7771 12.2076C41.2824 12.5226 47.7921 24.4364 47.3159 38.819C47.243 41.1018 46.9892 43.3742 46.5572 45.6122Z" fill="white"/>
<path fill-rule="evenodd" clip-rule="evenodd" d="M29.9182 75.1668V77.0392H31.7836V76.4L32.4821 76.5495V76.9037C32.4821 77.4643 32.3004 77.6139 31.7375 77.6139H29.9652C29.3946 77.6139 29.2266 77.458 29.2266 76.9037V75.3221C29.2266 74.762 29.4014 74.6124 29.9652 74.6124H31.7375C32.3 74.6124 32.4821 74.7552 32.4821 75.3221V75.6126L31.7836 75.7187V75.1672L29.9182 75.1668ZM35.2442 76.4067L35.8815 75.159L36.5457 76.4067H35.2442ZM33.9019 77.6134H34.5927L34.9483 76.9529H36.827L37.1826 77.6134H37.9619L36.2499 74.6119H35.5856L33.9019 77.6134ZM39.5055 74.6124H39.9821L42.3908 76.605V74.6124H43.0158V77.6134H42.5396L40.1373 75.5918V77.6134H39.5055V74.6124ZM46.0362 76.4067L46.6735 75.159L47.3369 76.4067H46.0362ZM44.6931 77.6134H45.3852L45.7408 76.9529H47.6195L47.9751 77.6134H48.7526L47.0424 74.6119H46.3782L44.6931 77.6134ZM50.9946 77.0532V75.1518H52.2182C52.876 75.1518 53.2043 75.4423 53.2043 76.0661C53.2043 76.8472 52.7674 77.0537 51.8881 77.0537H50.9946V77.0532ZM50.2975 77.6134H52.0365C53.2837 77.6134 53.9142 77.1164 53.9142 76.1023C53.9142 75.173 53.3321 74.6119 52.2104 74.6119H50.298L50.2975 77.6134ZM56.5822 76.4067L57.2204 75.159L57.8847 76.4067H56.5822ZM55.24 77.6134H55.9321L56.2877 76.9529H58.1664L58.522 77.6134H59.3013L57.5893 74.6119H56.9241L55.24 77.6134Z" fill="#807F7F"/>
</svg>
